<mxfile host="drawio-plugin" modified="2023-03-07T16:20:33.924Z" agent="5.0 (Windows NT 6.2; Win64; x64) AppleWebKit/537.36 (KHTML, like Gecko) Chrome/104.0.5112.102 Safari/537.36" etag="P9hpZpXd8vSe26LTnvLm" version="20.5.3" type="embed"><diagram id="C5RBs43oDa-KdzZeNtuy" name="Page-1"><mxGraphModel dx="771" dy="423" grid="0" gridSize="10" guides="1" tooltips="1" connect="1" arrows="1" fold="1" page="1" pageScale="1" pageWidth="827" pageHeight="1169" background="#99FFFF" math="0" shadow="0"><root><mxCell id="WIyWlLk6GJQsqaUBKTNV-0"/><mxCell id="WIyWlLk6GJQsqaUBKTNV-1" parent="WIyWlLk6GJQsqaUBKTNV-0"/><mxCell id="WIyWlLk6GJQsqaUBKTNV-2" value="" style="rounded=0;html=1;jettySize=auto;orthogonalLoop=1;fontSize=11;endArrow=block;endFill=0;endSize=8;strokeWidth=1;shadow=0;labelBackgroundColor=none;entryX=0.585;entryY=-0.024;entryDx=0;entryDy=0;entryPerimeter=0;targetPerimeterSpacing=8;fillColor=#647687;strokeColor=#314354;" parent="WIyWlLk6GJQsqaUBKTNV-1" source="WIyWlLk6GJQsqaUBKTNV-3" target="mP3IFipRadDMKeITkalt-62" edge="1"><mxGeometry relative="1" as="geometry"><mxPoint x="540" y="180" as="targetPoint"/></mxGeometry></mxCell><mxCell id="WIyWlLk6GJQsqaUBKTNV-3" value="Display Application Info" style="rounded=1;whiteSpace=wrap;html=1;fontSize=15;glass=0;strokeWidth=1;shadow=0;" parent="WIyWlLk6GJQsqaUBKTNV-1" vertex="1"><mxGeometry x="470" y="230" width="150" height="50" as="geometry"/></mxCell><mxCell id="mP3IFipRadDMKeITkalt-1" style="rounded=0;orthogonalLoop=1;jettySize=auto;html=1;exitX=0.858;exitY=1.024;exitDx=0;exitDy=0;entryX=0;entryY=0;entryDx=0;entryDy=0;exitPerimeter=0;" parent="WIyWlLk6GJQsqaUBKTNV-1" source="mP3IFipRadDMKeITkalt-62" target="mP3IFipRadDMKeITkalt-3" edge="1"><mxGeometry relative="1" as="geometry"><mxPoint x="220" y="300" as="targetPoint"/><mxPoint x="540" y="260" as="sourcePoint"/></mxGeometry></mxCell><mxCell id="mP3IFipRadDMKeITkalt-8" value="1" style="rounded=0;orthogonalLoop=1;jettySize=auto;html=1;exitX=0.957;exitY=0.263;exitDx=0;exitDy=0;entryX=0.5;entryY=1;entryDx=0;entryDy=0;exitPerimeter=0;fontSize=25;" parent="WIyWlLk6GJQsqaUBKTNV-1" source="mP3IFipRadDMKeITkalt-3" target="mP3IFipRadDMKeITkalt-11" edge="1"><mxGeometry relative="1" as="geometry"><mxPoint x="340" y="340" as="targetPoint"/></mxGeometry></mxCell><mxCell id="mP3IFipRadDMKeITkalt-15" value="3" style="rounded=0;orthogonalLoop=1;jettySize=auto;html=1;entryX=1;entryY=0.5;entryDx=0;entryDy=0;fontSize=25;" parent="WIyWlLk6GJQsqaUBKTNV-1" source="mP3IFipRadDMKeITkalt-3" target="mP3IFipRadDMKeITkalt-19" edge="1"><mxGeometry relative="1" as="geometry"><mxPoint x="310" y="390" as="targetPoint"/></mxGeometry></mxCell><mxCell id="mP3IFipRadDMKeITkalt-116" style="rounded=0;orthogonalLoop=1;jettySize=auto;html=1;entryX=0.5;entryY=1;entryDx=0;entryDy=0;" parent="WIyWlLk6GJQsqaUBKTNV-1" source="mP3IFipRadDMKeITkalt-3" target="mP3IFipRadDMKeITkalt-115" edge="1"><mxGeometry relative="1" as="geometry"/></mxCell><mxCell id="-cmYZ6ppKfQ_UxQmh1x8-26" value="2" style="rounded=0;orthogonalLoop=1;jettySize=auto;html=1;exitX=0;exitY=1;exitDx=0;exitDy=0;entryX=0.644;entryY=-0.024;entryDx=0;entryDy=0;entryPerimeter=0;fontSize=25;" parent="WIyWlLk6GJQsqaUBKTNV-1" source="mP3IFipRadDMKeITkalt-3" target="mP3IFipRadDMKeITkalt-63" edge="1"><mxGeometry relative="1" as="geometry"/></mxCell><mxCell id="mP3IFipRadDMKeITkalt-3" value="Read Input" style="ellipse;whiteSpace=wrap;html=1;aspect=fixed;fontSize=16;" parent="WIyWlLk6GJQsqaUBKTNV-1" vertex="1"><mxGeometry x="665" y="447.5" width="80" height="80" as="geometry"/></mxCell><mxCell id="mP3IFipRadDMKeITkalt-104" value="" style="rounded=0;orthogonalLoop=1;jettySize=auto;html=1;" parent="WIyWlLk6GJQsqaUBKTNV-1" source="mP3IFipRadDMKeITkalt-11" target="mP3IFipRadDMKeITkalt-103" edge="1"><mxGeometry relative="1" as="geometry"/></mxCell><mxCell id="mP3IFipRadDMKeITkalt-11" value="Print all files recursively in root folder" style="rounded=1;whiteSpace=wrap;html=1;fontSize=16;" parent="WIyWlLk6GJQsqaUBKTNV-1" vertex="1"><mxGeometry x="750" y="334.38" width="110" height="68.75" as="geometry"/></mxCell><mxCell id="-cmYZ6ppKfQ_UxQmh1x8-52" style="rounded=0;orthogonalLoop=1;jettySize=auto;html=1;exitX=0.25;exitY=1;exitDx=0;exitDy=0;entryX=0.596;entryY=0.019;entryDx=0;entryDy=0;entryPerimeter=0;" parent="WIyWlLk6GJQsqaUBKTNV-1" source="mP3IFipRadDMKeITkalt-19" target="-cmYZ6ppKfQ_UxQmh1x8-50" edge="1"><mxGeometry relative="1" as="geometry"/></mxCell><mxCell id="mP3IFipRadDMKeITkalt-19" value="Exit the program" style="rounded=1;whiteSpace=wrap;html=1;fontSize=16;" parent="WIyWlLk6GJQsqaUBKTNV-1" vertex="1"><mxGeometry x="500" y="462.5" width="100" height="50" as="geometry"/></mxCell><mxCell id="mP3IFipRadDMKeITkalt-47" value="1" style="rounded=0;orthogonalLoop=1;jettySize=auto;html=1;exitX=0.405;exitY=1.017;exitDx=0;exitDy=0;fontSize=25;exitPerimeter=0;" parent="WIyWlLk6GJQsqaUBKTNV-1" source="mP3IFipRadDMKeITkalt-27" target="mP3IFipRadDMKeITkalt-70" edge="1"><mxGeometry relative="1" as="geometry"><mxPoint x="660" y="730" as="targetPoint"/></mxGeometry></mxCell><mxCell id="mP3IFipRadDMKeITkalt-77" value="2" style="rounded=0;orthogonalLoop=1;jettySize=auto;html=1;exitX=0.758;exitY=0.933;exitDx=0;exitDy=0;fontSize=25;exitPerimeter=0;" parent="WIyWlLk6GJQsqaUBKTNV-1" source="mP3IFipRadDMKeITkalt-27" target="mP3IFipRadDMKeITkalt-74" edge="1"><mxGeometry relative="1" as="geometry"/></mxCell><mxCell id="-cmYZ6ppKfQ_UxQmh1x8-25" value="4" style="rounded=0;orthogonalLoop=1;jettySize=auto;html=1;entryX=0.68;entryY=1.024;entryDx=0;entryDy=0;entryPerimeter=0;fontSize=20;" parent="WIyWlLk6GJQsqaUBKTNV-1" source="mP3IFipRadDMKeITkalt-27" target="mP3IFipRadDMKeITkalt-108" edge="1"><mxGeometry relative="1" as="geometry"><mxPoint x="900" y="470" as="targetPoint"/></mxGeometry></mxCell><mxCell id="-cmYZ6ppKfQ_UxQmh1x8-39" value="3" style="rounded=0;orthogonalLoop=1;jettySize=auto;html=1;exitX=1;exitY=0.5;exitDx=0;exitDy=0;entryX=0.25;entryY=0;entryDx=0;entryDy=0;fontSize=25;" parent="WIyWlLk6GJQsqaUBKTNV-1" source="mP3IFipRadDMKeITkalt-27" target="mP3IFipRadDMKeITkalt-82" edge="1"><mxGeometry relative="1" as="geometry"/></mxCell><mxCell id="-cmYZ6ppKfQ_UxQmh1x8-42" style="rounded=0;orthogonalLoop=1;jettySize=auto;html=1;exitX=0;exitY=1;exitDx=0;exitDy=0;entryX=0.75;entryY=0;entryDx=0;entryDy=0;" parent="WIyWlLk6GJQsqaUBKTNV-1" source="mP3IFipRadDMKeITkalt-27" target="mP3IFipRadDMKeITkalt-112" edge="1"><mxGeometry relative="1" as="geometry"/></mxCell><mxCell id="mP3IFipRadDMKeITkalt-27" value="Read Input" style="ellipse;whiteSpace=wrap;html=1;aspect=fixed;fontSize=16;" parent="WIyWlLk6GJQsqaUBKTNV-1" vertex="1"><mxGeometry x="805" y="427.5" width="85" height="85" as="geometry"/></mxCell><mxCell id="-cmYZ6ppKfQ_UxQmh1x8-6" style="rounded=0;orthogonalLoop=1;jettySize=auto;html=1;exitX=0;exitY=1;exitDx=0;exitDy=0;entryX=0.867;entryY=0.024;entryDx=0;entryDy=0;entryPerimeter=0;" parent="WIyWlLk6GJQsqaUBKTNV-1" source="mP3IFipRadDMKeITkalt-35" target="mP3IFipRadDMKeITkalt-43" edge="1"><mxGeometry relative="1" as="geometry"/></mxCell><mxCell id="-cmYZ6ppKfQ_UxQmh1x8-7" style="rounded=0;orthogonalLoop=1;jettySize=auto;html=1;exitX=-0.025;exitY=0.875;exitDx=0;exitDy=0;entryX=1;entryY=0.25;entryDx=0;entryDy=0;exitPerimeter=0;" parent="WIyWlLk6GJQsqaUBKTNV-1" source="mP3IFipRadDMKeITkalt-35" target="mP3IFipRadDMKeITkalt-41" edge="1"><mxGeometry relative="1" as="geometry"/></mxCell><mxCell id="mP3IFipRadDMKeITkalt-35" value="Read file name with relative path and file content" style="rounded=1;whiteSpace=wrap;html=1;fontSize=16;" parent="WIyWlLk6GJQsqaUBKTNV-1" vertex="1"><mxGeometry x="745" y="645" width="120" height="90" as="geometry"/></mxCell><mxCell id="-cmYZ6ppKfQ_UxQmh1x8-29" style="rounded=0;orthogonalLoop=1;jettySize=auto;html=1;exitX=0.5;exitY=1;exitDx=0;exitDy=0;" parent="WIyWlLk6GJQsqaUBKTNV-1" source="mP3IFipRadDMKeITkalt-41" edge="1"><mxGeometry relative="1" as="geometry"><mxPoint x="550" y="930" as="targetPoint"/></mxGeometry></mxCell><mxCell id="mP3IFipRadDMKeITkalt-41" value="File already exists" style="rounded=1;whiteSpace=wrap;html=1;fontSize=15;" parent="WIyWlLk6GJQsqaUBKTNV-1" vertex="1"><mxGeometry x="560" y="750" width="80" height="60" as="geometry"/></mxCell><mxCell id="-cmYZ6ppKfQ_UxQmh1x8-30" style="rounded=0;orthogonalLoop=1;jettySize=auto;html=1;exitX=0.5;exitY=1;exitDx=0;exitDy=0;" parent="WIyWlLk6GJQsqaUBKTNV-1" source="mP3IFipRadDMKeITkalt-43" edge="1"><mxGeometry relative="1" as="geometry"><mxPoint x="550" y="930" as="targetPoint"/></mxGeometry></mxCell><mxCell id="mP3IFipRadDMKeITkalt-43" value="File saved successfully" style="rounded=1;whiteSpace=wrap;html=1;fontSize=15;" parent="WIyWlLk6GJQsqaUBKTNV-1" vertex="1"><mxGeometry x="655" y="770" width="90" height="60" as="geometry"/></mxCell><mxCell id="mP3IFipRadDMKeITkalt-80" style="rounded=0;orthogonalLoop=1;jettySize=auto;html=1;exitX=0.5;exitY=1;exitDx=0;exitDy=0;entryX=0.5;entryY=0;entryDx=0;entryDy=0;" parent="WIyWlLk6GJQsqaUBKTNV-1" source="mP3IFipRadDMKeITkalt-52" target="mP3IFipRadDMKeITkalt-57" edge="1"><mxGeometry relative="1" as="geometry"/></mxCell><mxCell id="-cmYZ6ppKfQ_UxQmh1x8-4" style="rounded=0;orthogonalLoop=1;jettySize=auto;html=1;exitX=0.5;exitY=1;exitDx=0;exitDy=0;" parent="WIyWlLk6GJQsqaUBKTNV-1" source="mP3IFipRadDMKeITkalt-52" target="mP3IFipRadDMKeITkalt-59" edge="1"><mxGeometry relative="1" as="geometry"/></mxCell><mxCell id="mP3IFipRadDMKeITkalt-52" value="Read file name with relative path" style="rounded=1;whiteSpace=wrap;html=1;fontSize=16;" parent="WIyWlLk6GJQsqaUBKTNV-1" vertex="1"><mxGeometry x="885" y="670" width="100" height="60" as="geometry"/></mxCell><mxCell id="-cmYZ6ppKfQ_UxQmh1x8-33" style="rounded=0;orthogonalLoop=1;jettySize=auto;html=1;exitX=0.5;exitY=1;exitDx=0;exitDy=0;" parent="WIyWlLk6GJQsqaUBKTNV-1" source="mP3IFipRadDMKeITkalt-57" edge="1"><mxGeometry relative="1" as="geometry"><mxPoint x="550" y="930" as="targetPoint"/></mxGeometry></mxCell><mxCell id="mP3IFipRadDMKeITkalt-57" value="File deleted successfully" style="rounded=1;whiteSpace=wrap;html=1;fontSize=15;" parent="WIyWlLk6GJQsqaUBKTNV-1" vertex="1"><mxGeometry x="890" y="780" width="90" height="50" as="geometry"/></mxCell><mxCell id="-cmYZ6ppKfQ_UxQmh1x8-31" style="rounded=0;orthogonalLoop=1;jettySize=auto;html=1;exitX=0.5;exitY=1;exitDx=0;exitDy=0;" parent="WIyWlLk6GJQsqaUBKTNV-1" source="mP3IFipRadDMKeITkalt-59" edge="1"><mxGeometry relative="1" as="geometry"><mxPoint x="550" y="930" as="targetPoint"/></mxGeometry></mxCell><mxCell id="mP3IFipRadDMKeITkalt-59" value="File does not exist" style="rounded=1;whiteSpace=wrap;html=1;fontSize=15;" parent="WIyWlLk6GJQsqaUBKTNV-1" vertex="1"><mxGeometry x="760" y="780" width="100" height="60" as="geometry"/></mxCell><mxCell id="mP3IFipRadDMKeITkalt-62" value="&lt;div style=&quot;font-size: 16px;&quot;&gt;Print&lt;/div&gt;&lt;div style=&quot;font-size: 16px;&quot;&gt;Main Menu&lt;/div&gt;" style="rounded=1;whiteSpace=wrap;html=1;fontSize=16;" parent="WIyWlLk6GJQsqaUBKTNV-1" vertex="1"><mxGeometry x="470" y="340" width="130" height="57.5" as="geometry"/></mxCell><mxCell id="mP3IFipRadDMKeITkalt-67" style="rounded=0;orthogonalLoop=1;jettySize=auto;html=1;exitX=1;exitY=0.5;exitDx=0;exitDy=0;entryX=-0.024;entryY=0.618;entryDx=0;entryDy=0;entryPerimeter=0;" parent="WIyWlLk6GJQsqaUBKTNV-1" source="mP3IFipRadDMKeITkalt-63" target="mP3IFipRadDMKeITkalt-27" edge="1"><mxGeometry relative="1" as="geometry"/></mxCell><mxCell id="mP3IFipRadDMKeITkalt-63" value="&lt;div style=&quot;font-size: 16px;&quot;&gt;Print Business&lt;/div&gt;&lt;div style=&quot;font-size: 16px;&quot;&gt;Menu&lt;br style=&quot;font-size: 16px;&quot;&gt;&lt;/div&gt;" style="rounded=1;whiteSpace=wrap;html=1;fontSize=16;" parent="WIyWlLk6GJQsqaUBKTNV-1" vertex="1"><mxGeometry x="570" y="560" width="120" height="60" as="geometry"/></mxCell><mxCell id="mP3IFipRadDMKeITkalt-71" style="rounded=0;orthogonalLoop=1;jettySize=auto;html=1;exitX=0.5;exitY=1;exitDx=0;exitDy=0;" parent="WIyWlLk6GJQsqaUBKTNV-1" source="mP3IFipRadDMKeITkalt-70" target="mP3IFipRadDMKeITkalt-35" edge="1"><mxGeometry relative="1" as="geometry"><mxPoint x="830" y="630" as="sourcePoint"/></mxGeometry></mxCell><mxCell id="mP3IFipRadDMKeITkalt-70" value="Add a file" style="rounded=1;whiteSpace=wrap;html=1;fontSize=16;" parent="WIyWlLk6GJQsqaUBKTNV-1" vertex="1"><mxGeometry x="797.5" y="582.5" width="80" height="37.5" as="geometry"/></mxCell><mxCell id="mP3IFipRadDMKeITkalt-78" style="rounded=0;orthogonalLoop=1;jettySize=auto;html=1;exitX=0.25;exitY=1;exitDx=0;exitDy=0;entryX=0.5;entryY=0;entryDx=0;entryDy=0;" parent="WIyWlLk6GJQsqaUBKTNV-1" source="mP3IFipRadDMKeITkalt-74" target="mP3IFipRadDMKeITkalt-52" edge="1"><mxGeometry relative="1" as="geometry"><mxPoint x="744" y="850" as="targetPoint"/></mxGeometry></mxCell><mxCell id="mP3IFipRadDMKeITkalt-74" value="Delete a file" style="rounded=1;whiteSpace=wrap;html=1;fontSize=16;" parent="WIyWlLk6GJQsqaUBKTNV-1" vertex="1"><mxGeometry x="900" y="600" width="100" height="45" as="geometry"/></mxCell><mxCell id="mP3IFipRadDMKeITkalt-86" style="rounded=0;orthogonalLoop=1;jettySize=auto;html=1;exitX=0.5;exitY=1;exitDx=0;exitDy=0;entryX=0.25;entryY=0;entryDx=0;entryDy=0;" parent="WIyWlLk6GJQsqaUBKTNV-1" source="mP3IFipRadDMKeITkalt-82" target="mP3IFipRadDMKeITkalt-84" edge="1"><mxGeometry relative="1" as="geometry"/></mxCell><mxCell id="mP3IFipRadDMKeITkalt-82" value="search for a file" style="rounded=1;whiteSpace=wrap;html=1;fontSize=16;" parent="WIyWlLk6GJQsqaUBKTNV-1" vertex="1"><mxGeometry x="1020" y="595" width="80" height="45" as="geometry"/></mxCell><mxCell id="mP3IFipRadDMKeITkalt-93" style="rounded=0;orthogonalLoop=1;jettySize=auto;html=1;exitX=0.5;exitY=1;exitDx=0;exitDy=0;entryX=0.43;entryY=0;entryDx=0;entryDy=0;entryPerimeter=0;" parent="WIyWlLk6GJQsqaUBKTNV-1" source="mP3IFipRadDMKeITkalt-84" target="mP3IFipRadDMKeITkalt-91" edge="1"><mxGeometry relative="1" as="geometry"><mxPoint x="1020" y="960" as="targetPoint"/></mxGeometry></mxCell><mxCell id="mP3IFipRadDMKeITkalt-94" style="rounded=0;orthogonalLoop=1;jettySize=auto;html=1;exitX=0.5;exitY=1;exitDx=0;exitDy=0;entryX=0.358;entryY=-0.048;entryDx=0;entryDy=0;entryPerimeter=0;" parent="WIyWlLk6GJQsqaUBKTNV-1" source="mP3IFipRadDMKeITkalt-84" target="mP3IFipRadDMKeITkalt-92" edge="1"><mxGeometry relative="1" as="geometry"><mxPoint x="1080" y="940" as="targetPoint"/></mxGeometry></mxCell><mxCell id="mP3IFipRadDMKeITkalt-84" value="Read file name with relative path" style="rounded=1;whiteSpace=wrap;html=1;fontSize=16;" parent="WIyWlLk6GJQsqaUBKTNV-1" vertex="1"><mxGeometry x="1040" y="670" width="100" height="60" as="geometry"/></mxCell><mxCell id="-cmYZ6ppKfQ_UxQmh1x8-34" style="rounded=0;orthogonalLoop=1;jettySize=auto;html=1;exitX=0.5;exitY=1;exitDx=0;exitDy=0;" parent="WIyWlLk6GJQsqaUBKTNV-1" source="mP3IFipRadDMKeITkalt-91" edge="1"><mxGeometry relative="1" as="geometry"><mxPoint x="550" y="930" as="targetPoint"/></mxGeometry></mxCell><mxCell id="mP3IFipRadDMKeITkalt-91" value="File Not Found" style="rounded=1;whiteSpace=wrap;html=1;fontSize=15;" parent="WIyWlLk6GJQsqaUBKTNV-1" vertex="1"><mxGeometry x="1010" y="785" width="80" height="50" as="geometry"/></mxCell><mxCell id="-cmYZ6ppKfQ_UxQmh1x8-35" style="rounded=0;orthogonalLoop=1;jettySize=auto;html=1;exitX=0;exitY=0.75;exitDx=0;exitDy=0;" parent="WIyWlLk6GJQsqaUBKTNV-1" source="mP3IFipRadDMKeITkalt-92" edge="1"><mxGeometry relative="1" as="geometry"><mxPoint x="550" y="930" as="targetPoint"/></mxGeometry></mxCell><mxCell id="mP3IFipRadDMKeITkalt-92" value="File exists at specific directory" style="rounded=1;whiteSpace=wrap;html=1;fontSize=15;" parent="WIyWlLk6GJQsqaUBKTNV-1" vertex="1"><mxGeometry x="1120" y="820" width="100" height="60" as="geometry"/></mxCell><mxCell id="-cmYZ6ppKfQ_UxQmh1x8-37" style="rounded=0;orthogonalLoop=1;jettySize=auto;html=1;entryX=0;entryY=1;entryDx=0;entryDy=0;" parent="WIyWlLk6GJQsqaUBKTNV-1" source="mP3IFipRadDMKeITkalt-95" target="mP3IFipRadDMKeITkalt-63" edge="1"><mxGeometry relative="1" as="geometry"><mxPoint x="580" y="600" as="targetPoint"/></mxGeometry></mxCell><mxCell id="mP3IFipRadDMKeITkalt-95" value="Repeat Business Menu" style="ellipse;whiteSpace=wrap;html=1;fontSize=16;" parent="WIyWlLk6GJQsqaUBKTNV-1" vertex="1"><mxGeometry x="440" y="640" width="150" height="80" as="geometry"/></mxCell><mxCell id="mP3IFipRadDMKeITkalt-105" style="rounded=0;orthogonalLoop=1;jettySize=auto;html=1;exitX=0;exitY=0.5;exitDx=0;exitDy=0;entryX=0.894;entryY=-0.024;entryDx=0;entryDy=0;entryPerimeter=0;endSize=8;" parent="WIyWlLk6GJQsqaUBKTNV-1" source="mP3IFipRadDMKeITkalt-103" target="mP3IFipRadDMKeITkalt-62" edge="1"><mxGeometry relative="1" as="geometry"><mxPoint x="580" y="330" as="targetPoint"/></mxGeometry></mxCell><mxCell id="mP3IFipRadDMKeITkalt-103" value="Repeat Main Menu" style="ellipse;whiteSpace=wrap;html=1;fontSize=16;" parent="WIyWlLk6GJQsqaUBKTNV-1" vertex="1"><mxGeometry x="670" y="210" width="120" height="80" as="geometry"/></mxCell><mxCell id="mP3IFipRadDMKeITkalt-109" style="rounded=0;orthogonalLoop=1;jettySize=auto;html=1;exitX=0.418;exitY=-0.071;exitDx=0;exitDy=0;entryX=1;entryY=1;entryDx=0;entryDy=0;exitPerimeter=0;" parent="WIyWlLk6GJQsqaUBKTNV-1" source="mP3IFipRadDMKeITkalt-108" target="mP3IFipRadDMKeITkalt-103" edge="1"><mxGeometry relative="1" as="geometry"/></mxCell><mxCell id="mP3IFipRadDMKeITkalt-108" value="Navigate back to Main Menu" style="rounded=1;whiteSpace=wrap;html=1;fontSize=16;" parent="WIyWlLk6GJQsqaUBKTNV-1" vertex="1"><mxGeometry x="910" y="338.75" width="110" height="57.5" as="geometry"/></mxCell><mxCell id="-cmYZ6ppKfQ_UxQmh1x8-38" style="rounded=0;orthogonalLoop=1;jettySize=auto;html=1;exitX=0;exitY=0.5;exitDx=0;exitDy=0;" parent="WIyWlLk6GJQsqaUBKTNV-1" source="mP3IFipRadDMKeITkalt-112" edge="1"><mxGeometry relative="1" as="geometry"><mxPoint x="590" y="680" as="targetPoint"/></mxGeometry></mxCell><mxCell id="mP3IFipRadDMKeITkalt-112" value="Invalid input" style="rounded=1;whiteSpace=wrap;html=1;fontSize=16;" parent="WIyWlLk6GJQsqaUBKTNV-1" vertex="1"><mxGeometry x="640" y="645" width="80" height="50" as="geometry"/></mxCell><mxCell id="mP3IFipRadDMKeITkalt-117" style="rounded=0;orthogonalLoop=1;jettySize=auto;html=1;exitX=0.5;exitY=0;exitDx=0;exitDy=0;entryX=0;entryY=1;entryDx=0;entryDy=0;" parent="WIyWlLk6GJQsqaUBKTNV-1" source="mP3IFipRadDMKeITkalt-115" target="mP3IFipRadDMKeITkalt-103" edge="1"><mxGeometry relative="1" as="geometry"><mxPoint x="690" y="250" as="targetPoint"/></mxGeometry></mxCell><mxCell id="mP3IFipRadDMKeITkalt-115" value="Invalid Input" style="rounded=1;whiteSpace=wrap;html=1;fontSize=16;" parent="WIyWlLk6GJQsqaUBKTNV-1" vertex="1"><mxGeometry x="630" y="338.75" width="80" height="60" as="geometry"/></mxCell><mxCell id="-cmYZ6ppKfQ_UxQmh1x8-0" style="edgeStyle=orthogonalEdgeStyle;rounded=0;orthogonalLoop=1;jettySize=auto;html=1;exitX=0.5;exitY=1;exitDx=0;exitDy=0;" parent="WIyWlLk6GJQsqaUBKTNV-1" source="mP3IFipRadDMKeITkalt-57" target="mP3IFipRadDMKeITkalt-57" edge="1"><mxGeometry relative="1" as="geometry"/></mxCell><mxCell id="-cmYZ6ppKfQ_UxQmh1x8-16" style="edgeStyle=orthogonalEdgeStyle;rounded=0;orthogonalLoop=1;jettySize=auto;html=1;exitX=0.75;exitY=1;exitDx=0;exitDy=0;entryX=1;entryY=0.75;entryDx=0;entryDy=0;" parent="WIyWlLk6GJQsqaUBKTNV-1" source="mP3IFipRadDMKeITkalt-84" target="mP3IFipRadDMKeITkalt-84" edge="1"><mxGeometry relative="1" as="geometry"/></mxCell><mxCell id="-cmYZ6ppKfQ_UxQmh1x8-36" value="" style="endArrow=classic;html=1;rounded=0;entryX=0.5;entryY=1;entryDx=0;entryDy=0;" parent="WIyWlLk6GJQsqaUBKTNV-1" target="mP3IFipRadDMKeITkalt-95" edge="1"><mxGeometry width="50" height="50" relative="1" as="geometry"><mxPoint x="550" y="930" as="sourcePoint"/><mxPoint x="700" y="800" as="targetPoint"/></mxGeometry></mxCell><mxCell id="-cmYZ6ppKfQ_UxQmh1x8-53" style="rounded=0;orthogonalLoop=1;jettySize=auto;html=1;exitX=0.75;exitY=1;exitDx=0;exitDy=0;endSize=8;entryX=0.342;entryY=0.017;entryDx=0;entryDy=0;entryPerimeter=0;" parent="WIyWlLk6GJQsqaUBKTNV-1" source="-cmYZ6ppKfQ_UxQmh1x8-48" target="0" edge="1"><mxGeometry relative="1" as="geometry"><mxPoint x="600" y="108" as="targetPoint"/></mxGeometry></mxCell><mxCell id="-cmYZ6ppKfQ_UxQmh1x8-48" value="START" style="rounded=0;whiteSpace=wrap;html=1;fontSize=25;" parent="WIyWlLk6GJQsqaUBKTNV-1" vertex="1"><mxGeometry x="422" y="33" width="120" height="60" as="geometry"/></mxCell><mxCell id="-cmYZ6ppKfQ_UxQmh1x8-50" value="END" style="rounded=0;whiteSpace=wrap;html=1;fontSize=20;" parent="WIyWlLk6GJQsqaUBKTNV-1" vertex="1"><mxGeometry x="410" y="560" width="120" height="57.5" as="geometry"/></mxCell><mxCell id="1" style="rounded=0;orthogonalLoop=1;jettySize=auto;html=1;exitX=0.5;exitY=1;exitDx=0;exitDy=0;" edge="1" parent="WIyWlLk6GJQsqaUBKTNV-1" source="0" target="WIyWlLk6GJQsqaUBKTNV-3"><mxGeometry relative="1" as="geometry"/></mxCell><mxCell id="0" value="Create root directory&lt;br style=&quot;font-size: 15px;&quot;&gt;if it does not exit" style="whiteSpace=wrap;html=1;fontSize=15;" vertex="1" parent="WIyWlLk6GJQsqaUBKTNV-1"><mxGeometry x="482" y="127" width="120" height="60" as="geometry"/></mxCell></root></mxGraphModel></diagram></mxfile>